inDegrees=yes
name=ik_S47_A13_T02
DataType=double
version=3
OpenSimVersion=4.3-2021-08-27-4bc7ad9
endheader
time	pelvis_tilt	pelvis_list	pelvis_rotation	pelvis_tx	pelvis_ty	pelvis_tz	hip_flexion_r	hip_adduction_r	hip_rotation_r	knee_angle_r	knee_angle_r_beta	ankle_angle_r	subtalar_angle_r	mtp_angle_r	hip_flexion_l	hip_adduction_l	hip_rotation_l	knee_angle_l	knee_angle_l_beta	ankle_angle_l	subtalar_angle_l	mtp_angle_l	lumbar_extension	lumbar_bending	lumbar_rotation	arm_flex_r	arm_add_r	arm_rot_r	elbow_flex_r	pro_sup_r	wrist_flex_r	wrist_dev_r	arm_flex_l	arm_add_l	arm_rot_l	elbow_flex_l	pro_sup_l	wrist_flex_l	wrist_dev_l
2.980000000000002	-1.264173599192314	-0.0909664679681767	26.97930633513621	0	0.9399999999999999	0	43.58714215127972	-12.31843655846393	-11.765784472164	49.82839796303663	0.8696696054490249	0	0	0	43.58714215127972	-12.31843655846393	-11.765784472164	49.82839796303663	0.8696696054490249	0	0	0	-1.190200731912241	1.85905800327279	5.50452738252504	59.98929997336601	-6.051493154556711	70.88737474950007	62.07401903494677	125.7887072129072	0	0	109.6783139595193	9.375667904309534	28.29134626358287	1.822002099144267	100.248206336361	0	0
3.000000000000002	-1.291522403496919	-0.07694023060014465	26.81810537566079	0	0.9399999999999999	0	43.59982304491544	-12.26954621291751	-11.73801819323059	49.86926561521869	0.8703828805371617	0	0	0	43.59982304491544	-12.26954621291751	-11.73801819323059	49.86926561521869	0.8703828805371617	0	0	0	-1.209557086555054	1.873791762170782	5.611126391226112	61.53979783227378	-5.895669236290311	69.768107472898	61.45545326395162	124.0941997164715	0	0	109.2488214575266	9.490462109894098	28.03056505684881	1.988101793967727	100.280117055288	0	0
3.020000000000002	-1.291980946273842	-0.07332668508736356	26.64733667685357	0	0.9399999999999999	0	43.60039420922254	-12.26631365518748	-11.73643166266593	49.8706790854527	0.8704075502466241	0	0	0	43.60039420922254	-12.26631365518748	-11.73643166266593	49.8706790854527	0.8704075502466241	0	0	0	-1.209281646202086	1.872938111206311	5.742777158800108	61.82866651979104	-5.904512269321906	69.31043129759045	60.69145392714664	121.8525202659442	0	0	108.9506126882604	9.618680887481965	28.06246821249903	1.990667845012743	100.2005389142195	0	0
3.040000000000002	-1.3117292856853	-0.04100620196406688	26.36834562169191	0	0.9399999999999999	0	43.61612909089459	-12.20577366928338	-11.70202224627823	49.92129178712347	0.8712909085341087	0	0	0	43.61612909089459	-12.20577366928338	-11.70202224627823	49.92129178712347	0.8712909085341087	0	0	0	-1.210272417980274	1.897975973283908	5.944202956872336	65.57403600293804	-5.257310102577021	66.82887544735009	58.91072049034162	118.4541071941292	0	0	108.676536718254	9.723304280666765	28.20352787149061	1.856482270661344	100.209382495965	0	0
3.060000000000002	-1.317986822192301	-0.01572619474504729	26.20026760191373	0	0.9399999999999999	0	43.62887465227643	-12.1576579073932	-11.67443399869483	49.96234065566779	0.8720073464444253	0	0	0	43.62887465227643	-12.1576579073932	-11.67443399869483	49.96234065566779	0.8720073464444253	0	0	0	-1.209711888962705	1.921778976411511	6.003874800912837	67.90126959427259	-4.776503347889236	65.10596794763647	57.59587943678289	116.6451943530988	0	0	108.6074313932183	9.648307590047709	28.20239555110034	1.833224031424519	100.2475543198416	0	0
3.080000000000002	-1.317396483650057	-0.003681779245344998	26.03414350847989	0	0.9399999999999999	0	43.64124758089558	-12.11141863469643	-11.64780065345169	50.00218529870047	0.8727027666546275	0	0	0	43.64124758089558	-12.11141863469643	-11.64780065345169	50.00218529870047	0.8727027666546275	0	0	0	-1.208254351999163	1.930113693284179	6.040912673624964	70.32267037125327	-4.274816158206733	63.38021982703322	56.30950762237922	115.1961117250888	0	0	108.4357902756167	9.629534238906215	28.43183974518316	1.83284508918066	100.0607603760843	0	0
3.100000000000002	-1.305478711296002	0.01511029939200627	25.89324386600527	0	0.9399999999999999	0	43.65329951786211	-12.06741975339954	-11.62219679638964	50.04123890088138	0.8733843805974485	0	0	0	43.65329951786211	-12.06741975339954	-11.62219679638964	50.04123890088138	0.8733843805974485	0	0	0	-1.193518091559875	1.939306104828892	6.06894397077724	72.71311963016413	-3.796226923601615	61.66552680911282	55.06768048608497	113.8382233517999	0	0	108.3561836981874	9.557928736321204	28.44143359024962	1.868617917197002	100.0315194656743	0	0
3.120000000000002	-1.278136315421851	0.04254654475211644	25.70628204499935	0	0.9399999999999999	0	43.66589431278805	-12.02175006271749	-11.59553835041833	50.0819905241971	0.8740956305998403	0	0	0	43.66589431278805	-12.02175006271749	-11.59553835041833	50.0819905241971	0.8740956305998403	0	0	0	-1.159697414713611	1.947275729973801	6.133583104675876	75.07191328817716	-3.279090901755466	59.94272152733964	53.78682219802828	112.4093756051143	0	0	107.9969374238052	9.789568945930403	28.38543324113929	2.062486379168871	99.93235487184974	0	0
3.140000000000002	-1.241933228425026	0.05525761929855429	25.58962740932316	0	0.9399999999999999	0	43.67740837685546	-11.98072973818727	-11.57139978794373	50.1193158780199	0.87474708091852	0	0	0	43.67740837685546	-11.98072973818727	-11.57139978794373	50.1193158780199	0.87474708091852	0	0	0	-1.126734810681768	1.942344248272481	6.147564596022879	77.35950217679958	-2.808580213897613	58.31505116066182	52.54725778101455	110.8137662983045	0	0	107.8594641163305	9.854002434225057	28.3541002723297	2.009589604757868	100.0194409173308	0	0
3.160000000000002	-1.165112329765601	0.07416015136099455	25.53253355849545	0	0.9399999999999999	0	43.6871944742439	-11.94621349894383	-11.55098796888342	50.15097308262779	0.8752996033709052	0	0	0	43.6871944742439	-11.94621349894383	-11.55098796888342	50.15097308262779	0.8752996033709052	0	0	0	-1.052025714688176	1.923983804426411	6.12235753510733	79.32619754555904	-2.290418761265544	57.14271154700938	51.42875185250992	109.6532024635755	0	0	107.6160189912997	9.954447005229731	28.59745014530543	2.047094655690892	99.88773914611374	0	0
3.180000000000002	-1.123448921441393	0.1083513251836637	25.53048069511929	0	0.9399999999999999	0	43.70097650980926	-11.89795896851774	-11.52238140312055	50.19572981224121	0.8760807556650843	0	0	0	43.70097650980926	-11.89795896851774	-11.52238140312055	50.19572981224121	0.8760807556650843	0	0	0	-0.9987237506653276	1.923911239477359	6.07971857306369	83.27629495440515	-1.407409362074138	55.65820733487699	49.11896925130483	106.9654878252105	0	0	107.4327338480779	10.04947679960969	28.78659308879094	2.095094416016326	99.78489269067714	0	0
3.200000000000002	-1.060685631692644	0.1143039453710311	25.51043238480656	0	0.9399999999999999	0	43.70146484405619	-11.89547279309806	-11.52110202589019	50.1969501757674	0.8761020550266874	0	0	0	43.70146484405619	-11.89547279309806	-11.52110202589019	50.1969501757674	0.8761020550266874	0	0	0	-0.9399255602297152	1.902317879846741	6.080168120272345	85.14383044800242	-1.008169047651622	54.90215605088559	48.04418459481582	105.0785937679985	0	0	107.2752844013212	10.19295204874553	28.90509793072947	2.165414286940091	99.81413489420395	0	0
3.220000000000002	-1.022174105075389	0.1459555212517475	25.40731663337285	0	0.9399999999999999	0	43.7020879248015	-11.89230682432003	-11.51947143320159	50.19850866848201	0.8761292558559257	0	0	0	43.7020879248015	-11.89230682432003	-11.51947143320159	50.19850866848201	0.8761292558559257	0	0	0	-0.8911999304039802	1.912902854378086	6.160474578827507	85.51552630779024	-1.165036202315882	54.42853023743362	48.16165922017581	103.0204581433924	0	0	107.0981513019024	10.29377981847267	28.90292828906706	2.229817534542152	99.70798458181835	0	0
3.240000000000002	-0.9659113366253101	0.1640875861085078	25.42027756907573	0	0.9399999999999999	0	43.70267938472969	-11.88929795011531	-11.51792211626707	50.1999852462877	0.8761550270002969	0	0	0	43.70267938472969	-11.88929795011531	-11.51792211626707	50.1999852462877	0.8761550270002969	0	0	0	-0.8329463706806854	1.905588863923251	6.144850032623616	87.12025194860327	-0.808696536464849	54.11426512581682	47.53789411017028	101.5223769697323	0	0	106.8747312019143	10.49015190308005	28.97982815194145	2.263407417052145	99.44341274905463	0	0
3.260000000000002	-0.9177466771254442	0.1823835242510982	25.47008408905924	0	0.9399999999999999	0	43.70330751659903	-11.88610499481111	-11.51627726329637	50.20155303888334	0.8761823901430792	0	0	0	43.70330751659903	-11.88610499481111	-11.51627726329637	50.20155303888334	0.8761823901430792	0	0	0	-0.781551791167429	1.901708973184944	6.1132912089774	88.48364277758716	-0.4406384220043543	54.09224093664211	47.02890972646204	100.3193926727641	0	0	106.6575420580165	10.66778960757673	28.96570454285199	2.408518319102653	99.2985234623857	0	0
3.280000000000002	-0.8926340054694919	0.1952939995317238	25.56371449776707	0	0.9399999999999999	0	43.70391633019857	-11.88301415205642	-11.51468398071023	50.20307277818562	0.876208914597676	0	0	0	43.70391633019857	-11.88301415205642	-11.51468398071023	50.20307277818562	0.876208914597676	0	0	0	-0.7531585001041441	1.903472931083686	6.039854475088885	89.66473616981122	-0.06184083159424957	54.22758443035363	46.51201828329048	98.94366083752489	0	0	106.5673576644409	10.72704418048578	28.9652061891375	2.456519405338399	99.29195700155493	0	0
3.300000000000002	-0.8518217974433757	0.186588038784593	25.65043947151421	0	0.9399999999999999	0	43.70436375787215	-11.88075473495586	-11.51351698395991	50.20419431712965	0.8762284891449386	0	0	0	43.70436375787215	-11.88075473495586	-11.51351698395991	50.20419431712965	0.8762284891449386	0	0	0	-0.7195476468087859	1.878570532127355	5.958716495516906	90.87350394710802	0.3083481053915993	54.46438960425542	45.91783001715525	97.2845995750243	0	0	106.4659254198792	10.80381593997181	29.07622782249011	2.44793538106864	99.26500823114951	0	0
3.320000000000003	-0.8059956141222752	0.2146016106115017	25.74743245487222	0	0.9399999999999999	0	43.70484872537194	-11.87830159414904	-11.51225045788709	50.20540712399147	0.8762496566178681	0	0	0	43.70484872537194	-11.87830159414904	-11.51225045788709	50.20540712399147	0.8762496566178681	0	0	0	-0.6654453185395781	1.884330968521054	5.878227033976132	91.9504248317608	0.7646635128441704	54.67153387068277	45.25452370735829	95.95870556825268	0	0	106.3308463660805	10.8635057613877	29.05775675254333	2.508193740610842	99.24756170604898	0	0
3.340000000000003	-0.7569673568661588	0.2333928052259148	25.86104189613263	0	0.9399999999999999	0	43.70531891619588	-11.87592967594908	-11.51102458988829	50.2065852918339	0.8762702195258597	0	0	0	43.70531891619588	-11.87592967594908	-11.51102458988829	50.2065852918339	0.8762702195258597	0	0	0	-0.6129251461526697	1.880830051766783	5.807059785316965	92.71642038049056	1.306263563629831	54.85605855864225	44.46646284296862	95.32584006490785	0	0	106.0614685164451	11.07386344142858	29.12644735687987	2.567823957123287	98.97969255390132	0	0
3.360000000000003	-0.7053702847691747	0.2458847219761827	25.954364054757	0	0.9399999999999999	0	43.70580642532327	-11.87346568739375	-11.50975175019702	50.20780369942772	0.8762914847500032	0	0	0	43.70580642532327	-11.87346568739375	-11.50975175019702	50.20780369942772	0.8762914847500032	0	0	0	-0.5608028417790307	1.870061922367771	5.737809377810464	93.54946093688726	1.799301343745649	54.84422345794094	43.86245111303519	94.71950785285848	0	0	105.9118805285026	11.17511687438459	29.02381537948871	2.577517518221639	99.11591282453796	0	0
3.380000000000003	-0.6525331548636036	0.2690346988758877	26.07681423609415	0	0.9399999999999999	0	43.70634682998232	-11.87073428724653	-11.50834052274057	50.20915306681282	0.8763150356536922	0	0	0	43.70634682998232	-11.87073428724653	-11.50834052274057	50.20915306681282	0.8763150356536922	0	0	0	-0.5030884921075452	1.867944793363715	5.67439141073717	94.43309687434814	2.269133629729197	54.7891622439213	43.06064946619194	93.95872198193933	0	0	105.7246038856748	11.3019526830161	29.20032031943042	2.529064856933212	98.68091604045362	0	0
3.400000000000003	-0.6360586409217044	0.2559209330354685	26.17300424755308	0	0.9399999999999999	0	43.70678302014238	-11.86853404765765	-11.50720276860973	50.2102433827397	0.8763340652565033	0	0	0	43.70678302014238	-11.86853404765765	-11.50720276860973	50.2102433827397	0.8763340652565033	0	0	0	-0.4935576731217532	1.848910378693764	5.576481562393122	95.27877001272724	2.828780496869274	54.5448425889841	42.2882561147329	93.15707452886862	0	0	105.6782421438127	11.33287712606063	29.42371234997239	2.492092218923749	98.42971230408749	0	0
